<svg width="482" height="349" viewBox="0 0 482 349" fill="none" xmlns="http://www.w3.org/2000/svg">
<path d="M307.155 261.634V345.764H96.1509C72.1098 345.764 52.5498 326.893 52.5498 303.699C52.5498 280.505 72.1098 261.634 96.1509 261.634H307.155Z" fill="#F2F2F2"/>
<path d="M312.337 345.117C312.337 345.975 311.995 346.798 311.388 347.405C310.781 348.011 309.957 348.352 309.098 348.353H92.3923C80.6226 348.353 69.335 343.682 61.0126 335.369C52.6902 327.055 48.0146 315.78 48.0146 304.023C48.0146 292.266 52.6902 280.99 61.0126 272.677C69.335 264.363 80.6226 259.693 92.3923 259.693H309.098C309.957 259.693 310.781 260.034 311.388 260.641C311.996 261.247 312.337 262.07 312.337 262.929C312.337 263.787 311.996 264.61 311.388 265.217C310.781 265.823 309.957 266.164 309.098 266.164H92.3923C82.3408 266.164 72.701 270.153 65.5936 277.253C58.4861 284.353 54.4931 293.982 54.4931 304.023C54.4931 314.063 58.4861 323.693 65.5936 330.793C72.701 337.893 82.3408 341.881 92.3923 341.881H309.098C309.957 341.882 310.781 342.223 311.388 342.829C311.995 343.436 312.337 344.259 312.337 345.117Z" fill="#6C63FF"/>
<path d="M307.155 281.049H80.4076C80.2358 281.049 80.071 280.981 79.9495 280.86C79.828 280.738 79.7598 280.574 79.7598 280.402C79.7598 280.23 79.828 280.066 79.9495 279.944C80.071 279.823 80.2358 279.755 80.4076 279.755H307.155C307.327 279.755 307.492 279.823 307.613 279.944C307.735 280.066 307.803 280.23 307.803 280.402C307.803 280.574 307.735 280.738 307.613 280.86C307.492 280.981 307.327 281.049 307.155 281.049Z" fill="#CCCCCC"/>
<path d="M307.155 296.581H80.4076C80.2358 296.581 80.071 296.513 79.9495 296.391C79.828 296.27 79.7598 296.105 79.7598 295.934C79.7598 295.762 79.828 295.598 79.9495 295.476C80.071 295.355 80.2358 295.287 80.4076 295.287H307.155C307.327 295.287 307.492 295.355 307.613 295.476C307.735 295.598 307.803 295.762 307.803 295.934C307.803 296.105 307.735 296.27 307.613 296.391C307.492 296.513 307.327 296.581 307.155 296.581Z" fill="#CCCCCC"/>
<path d="M307.155 312.112H80.4076C80.2358 312.112 80.071 312.044 79.9495 311.923C79.828 311.801 79.7598 311.637 79.7598 311.465C79.7598 311.293 79.828 311.129 79.9495 311.007C80.071 310.886 80.2358 310.818 80.4076 310.818H307.155C307.327 310.818 307.492 310.886 307.613 311.007C307.735 311.129 307.803 311.293 307.803 311.465C307.803 311.637 307.735 311.801 307.613 311.923C307.492 312.044 307.327 312.112 307.155 312.112Z" fill="#CCCCCC"/>
<path d="M307.155 327.644H80.4076C80.2358 327.644 80.071 327.576 79.9495 327.454C79.828 327.333 79.7598 327.168 79.7598 326.997C79.7598 326.825 79.828 326.661 79.9495 326.539C80.071 326.418 80.2358 326.35 80.4076 326.35H307.155C307.327 326.35 307.492 326.418 307.613 326.539C307.735 326.661 307.803 326.825 307.803 326.997C307.803 327.168 307.735 327.333 307.613 327.454C307.492 327.576 307.327 327.644 307.155 327.644Z" fill="#CCCCCC"/>
<path d="M470.229 277.471L417.388 342.981L253.083 210.736C234.363 195.668 230.985 168.714 245.553 150.654C260.121 132.593 287.204 130.158 305.925 145.225L470.229 277.471Z" fill="#F2F2F2"/>
<path d="M421.831 345.726C421.291 346.394 420.509 346.82 419.655 346.912C418.801 347.004 417.945 346.753 417.276 346.215L248.531 210.396C239.367 203.019 233.511 192.308 232.252 180.618C230.993 168.929 234.434 157.218 241.819 148.063C249.203 138.908 259.926 133.059 271.628 131.801C283.331 130.544 295.054 133.982 304.218 141.358L472.963 277.177C473.294 277.444 473.57 277.773 473.774 278.146C473.978 278.519 474.107 278.929 474.152 279.351C474.198 279.774 474.16 280.201 474.04 280.609C473.92 281.017 473.721 281.397 473.454 281.728C473.187 282.059 472.858 282.335 472.484 282.538C472.111 282.742 471.701 282.87 471.277 282.916C470.854 282.961 470.426 282.922 470.018 282.803C469.61 282.683 469.229 282.484 468.898 282.217L300.154 146.397C296.278 143.276 291.826 140.947 287.049 139.545C282.273 138.143 277.267 137.695 272.317 138.226C267.367 138.756 262.571 140.256 258.201 142.639C253.832 145.023 249.975 148.242 246.852 152.114C243.729 155.987 241.399 160.436 239.998 165.207C238.596 169.979 238.149 174.98 238.682 179.924C239.216 184.868 240.719 189.659 243.106 194.023C245.494 198.387 248.718 202.238 252.596 205.357L421.341 341.176C422.009 341.714 422.436 342.496 422.528 343.349C422.62 344.203 422.369 345.057 421.831 345.726Z" fill="#CCCCCC"/>
<path d="M458.036 292.589L281.472 150.476C281.406 150.422 281.351 150.357 281.31 150.282C281.269 150.207 281.243 150.126 281.234 150.041C281.225 149.957 281.233 149.871 281.257 149.79C281.281 149.708 281.32 149.632 281.374 149.566C281.427 149.5 281.493 149.445 281.568 149.404C281.642 149.363 281.724 149.338 281.809 149.328C281.894 149.319 281.979 149.327 282.061 149.351C282.142 149.375 282.219 149.415 282.285 149.468L458.848 291.581C458.915 291.634 458.97 291.7 459.011 291.775C459.052 291.849 459.078 291.931 459.087 292.016C459.096 292.1 459.088 292.186 459.064 292.267C459.04 292.349 459 292.425 458.947 292.491C458.894 292.558 458.828 292.613 458.753 292.653C458.678 292.694 458.596 292.72 458.512 292.729C458.427 292.738 458.341 292.73 458.26 292.706C458.178 292.682 458.102 292.642 458.036 292.589Z" fill="#CCCCCC"/>
<path d="M448.28 304.683L271.716 162.57C271.583 162.462 271.498 162.306 271.479 162.135C271.461 161.965 271.511 161.794 271.619 161.661C271.727 161.527 271.883 161.442 272.054 161.423C272.224 161.405 272.395 161.455 272.529 161.562L449.093 303.675C449.159 303.728 449.214 303.794 449.255 303.869C449.296 303.943 449.322 304.025 449.331 304.11C449.34 304.194 449.333 304.28 449.309 304.362C449.285 304.443 449.245 304.519 449.192 304.585C449.138 304.652 449.072 304.707 448.997 304.748C448.923 304.788 448.841 304.814 448.756 304.823C448.671 304.832 448.586 304.824 448.504 304.8C448.422 304.776 448.346 304.736 448.28 304.683Z" fill="#CCCCCC"/>
<path d="M438.525 316.777L261.961 174.664C261.827 174.557 261.742 174.4 261.723 174.23C261.705 174.059 261.755 173.888 261.863 173.754C261.971 173.621 262.127 173.535 262.298 173.517C262.469 173.499 262.64 173.549 262.774 173.656L439.338 315.769C439.404 315.823 439.459 315.888 439.5 315.963C439.541 316.038 439.566 316.119 439.575 316.204C439.584 316.288 439.577 316.374 439.553 316.455C439.529 316.537 439.489 316.613 439.436 316.679C439.382 316.745 439.316 316.8 439.242 316.841C439.167 316.882 439.085 316.908 439.001 316.917C438.916 316.926 438.83 316.918 438.749 316.894C438.667 316.87 438.591 316.83 438.525 316.777Z" fill="#CCCCCC"/>
<path d="M428.769 328.871L252.205 186.758C252.139 186.705 252.084 186.639 252.043 186.565C252.002 186.49 251.977 186.408 251.968 186.324C251.958 186.239 251.966 186.154 251.99 186.072C252.014 185.991 252.054 185.915 252.107 185.849C252.161 185.782 252.227 185.727 252.301 185.687C252.376 185.646 252.458 185.62 252.542 185.611C252.627 185.602 252.713 185.61 252.794 185.634C252.876 185.658 252.952 185.697 253.018 185.751L429.582 327.863C429.648 327.917 429.703 327.983 429.744 328.057C429.785 328.132 429.811 328.214 429.82 328.298C429.829 328.383 429.822 328.468 429.798 328.55C429.774 328.632 429.734 328.708 429.68 328.774C429.627 328.84 429.561 328.895 429.486 328.936C429.412 328.977 429.33 329.002 429.245 329.011C429.16 329.02 429.075 329.013 428.993 328.989C428.911 328.965 428.835 328.925 428.769 328.871Z" fill="#CCCCCC"/>
<path d="M219.025 252.792L211.619 252.791L208.097 224.254L219.028 224.256L219.025 252.792Z" fill="#FFB8B8"/>
<path d="M206.328 250.677H220.612V259.661H197.335C197.335 258.481 197.568 257.313 198.02 256.223C198.471 255.133 199.134 254.143 199.969 253.309C200.804 252.474 201.796 251.813 202.887 251.361C203.978 250.91 205.147 250.677 206.328 250.677Z" fill="#2F2E41"/>
<path d="M143.36 252.792L135.954 252.791L132.432 224.254L143.363 224.256L143.36 252.792Z" fill="#FFB8B8"/>
<path d="M130.663 250.677H144.947V259.661H121.67C121.67 258.481 121.903 257.313 122.355 256.223C122.806 255.133 123.469 254.143 124.304 253.309C125.139 252.474 126.131 251.813 127.222 251.361C128.313 250.91 129.482 250.677 130.663 250.677Z" fill="#2F2E41"/>
<path d="M168.098 41.1157V37.8799C168.098 32.3447 170.299 27.0362 174.217 23.1222C178.135 19.2081 183.45 17.0093 188.991 17.0093C194.532 17.0093 199.846 19.2081 203.765 23.1222C207.683 27.0362 209.884 32.3447 209.884 37.8799V41.1157C209.884 45.1063 208.297 48.9333 205.472 51.7551C202.648 54.5768 198.816 56.162 194.821 56.162H183.16C181.182 56.162 179.223 55.7728 177.396 55.0167C175.569 54.2606 173.908 53.1522 172.509 51.7551C171.111 50.3579 170.001 48.6992 169.244 46.8737C168.487 45.0482 168.098 43.0916 168.098 41.1157Z" fill="#2F2E41"/>
<path d="M188.991 57.2753C197.779 57.2753 204.903 50.159 204.903 41.3806C204.903 32.6021 197.779 25.4858 188.991 25.4858C180.203 25.4858 173.079 32.6021 173.079 41.3806C173.079 50.159 180.203 57.2753 188.991 57.2753Z" fill="#FFB8B8"/>
<path d="M102.441 96.0087C103.087 95.3996 103.859 94.9394 104.702 94.6604C105.545 94.3814 106.439 94.2905 107.321 94.394C108.203 94.4975 109.051 94.7929 109.807 95.2594C110.562 95.726 111.206 96.3523 111.693 97.0943L125.333 94.5169L128.923 102.415L109.609 105.785C108.307 106.519 106.78 106.751 105.319 106.436C103.857 106.121 102.562 105.282 101.678 104.077C100.795 102.872 100.385 101.385 100.525 99.8979C100.666 98.4109 101.348 97.0271 102.441 96.0087Z" fill="#FFB8B8"/>
<path d="M176.765 67.5553L154.397 82.2744L116.654 94.3136C116.154 94.4742 115.725 94.803 115.44 95.2441C115.155 95.6852 115.032 96.2113 115.092 96.7328L115.915 103.817C115.952 104.13 116.053 104.433 116.214 104.705C116.374 104.977 116.59 105.212 116.847 105.396C117.103 105.58 117.396 105.708 117.705 105.773C118.014 105.837 118.334 105.836 118.643 105.77L154.164 98.1645C155.883 97.7985 157.509 97.0837 158.94 96.0642L184.069 78.2048C184.98 77.5538 185.706 76.6785 186.178 75.6638C186.651 74.6492 186.852 73.5298 186.763 72.4144C186.67 71.2976 186.289 70.2239 185.655 69.2991C185.022 68.3743 184.158 67.6301 183.149 67.1399C182.14 66.6496 181.021 66.4301 179.902 66.5029C178.782 66.5758 177.701 66.9385 176.765 67.5553Z" fill="#CCCCCC"/>
<path d="M211.752 244.694C211.184 244.694 210.627 244.529 210.151 244.218C209.675 243.908 209.3 243.466 209.071 242.946L175.118 159.139C175.038 158.957 174.905 158.804 174.736 158.7C174.567 158.596 174.37 158.546 174.172 158.557C173.974 158.569 173.784 158.64 173.628 158.762C173.471 158.885 173.356 159.052 173.298 159.241L145.597 240.83C145.48 241.21 145.287 241.562 145.029 241.864C144.771 242.166 144.453 242.412 144.096 242.588C143.74 242.763 143.351 242.863 142.953 242.883C142.556 242.902 142.159 242.84 141.787 242.701L132.498 239.221C131.993 239.034 131.551 238.711 131.22 238.288C130.888 237.865 130.681 237.358 130.621 236.824C126.442 200.459 162.884 108.669 163.252 107.746L163.354 107.49L196.574 114.831L196.643 114.906C209.897 129.349 220.791 220.445 222.84 238.56C222.917 239.214 222.768 239.875 222.418 240.433C222.068 240.992 221.538 241.414 220.915 241.631L212.716 244.528C212.407 244.638 212.08 244.694 211.752 244.694Z" fill="#2F2E41"/>
<path d="M183.129 117.786C175.081 117.786 166.107 116.183 163.345 109.566L163.282 109.414L163.368 109.273C165.548 105.7 168.429 99.6046 166.881 98.4604C163.83 96.2071 162.349 92.5001 162.481 87.4424C162.766 76.4629 170.255 66.7149 181.117 63.1855C184.148 62.2164 187.234 61.4228 190.357 60.809C192.634 60.35 194.985 60.4005 197.24 60.9568C199.495 61.5131 201.599 62.5614 203.4 64.0264C205.224 65.501 206.698 67.3609 207.717 69.4724C208.736 71.5839 209.274 73.8946 209.293 76.2386C209.407 87.972 207.598 104.314 198.336 115.534C197.902 116.054 197.298 116.405 196.63 116.525C192.174 117.33 187.657 117.752 183.129 117.786Z" fill="#CCCCCC"/>
<path d="M180.136 117.346C180.574 115.776 181.614 114.443 183.031 113.635C184.447 112.828 186.126 112.611 187.701 113.033C188.023 113.123 188.337 113.239 188.639 113.38L198.996 103.965L206.199 108.812L191.388 121.905C190.719 123.109 189.666 124.056 188.397 124.594C187.128 125.131 185.715 125.23 184.383 124.873C183.607 124.661 182.881 124.297 182.247 123.803C181.612 123.309 181.083 122.694 180.688 121.994C180.293 121.294 180.04 120.523 179.946 119.725C179.851 118.927 179.915 118.119 180.136 117.346Z" fill="#FFB8B8"/>
<path d="M197.356 117.465C196.684 117.466 196.032 117.234 195.512 116.808L191.428 113.474C191.087 113.196 190.814 112.845 190.629 112.447C190.444 112.049 190.351 111.614 190.358 111.174C190.365 110.735 190.471 110.303 190.668 109.911C190.866 109.519 191.15 109.176 191.499 108.909L208.629 95.7845C208.832 95.6281 208.965 95.3981 208.999 95.1443C209.034 94.8906 208.967 94.6335 208.812 94.4289L198.239 80.4658C197.011 78.8489 196.395 76.8501 196.5 74.823C196.605 72.796 197.425 70.8715 198.814 69.3903C200.277 67.8118 202.281 66.8404 204.428 66.6689C206.574 66.4974 208.707 67.1383 210.403 68.4644L210.47 68.5349L221.51 84.3269C222.704 85.262 223.666 86.4601 224.319 87.8276C224.973 89.1952 225.301 90.6952 225.279 92.2106C225.256 93.7259 224.883 95.2154 224.189 96.563C223.495 97.9105 222.498 99.0795 221.277 99.9786L199.091 116.894C198.589 117.265 197.98 117.465 197.356 117.465Z" fill="#CCCCCC"/>
<path d="M174.896 36.9092V29.0229L188.991 22.875L202.43 29.0229V36.9092C202.43 37.2525 202.294 37.5817 202.051 37.8244C201.808 38.0672 201.478 38.2035 201.134 38.2035H176.192C175.849 38.2035 175.519 38.0672 175.276 37.8244C175.033 37.5817 174.896 37.2525 174.896 36.9092Z" fill="#2F2E41"/>
<path d="M188.344 18.0553C186.272 11.4294 190.624 3.83585 197.059 1.21316C203.493 -1.40954 211.19 0.423808 216.62 4.75689C222.049 9.08998 225.417 15.5801 227.202 22.289C228.987 28.9979 229.325 35.9936 229.655 42.9276C237.56 44.3781 242.938 53.7442 240.199 61.2927C237.461 68.8411 227.325 72.5911 220.325 68.6458C213.325 64.7004 211.297 54.0948 216.349 47.8504C218.74 44.8957 220.075 41.2287 220.144 37.4303C220.212 33.6319 219.011 29.9192 216.728 26.8801C214.446 23.8411 211.214 21.6495 207.545 20.6524C203.875 19.6554 199.977 19.9099 196.468 21.3756C192.572 23.0031 187.684 18.7744 188.344 18.0553Z" fill="#2F2E41"/>
<path d="M99.5185 65.4161C90.0538 65.3541 80.7075 63.3093 72.0833 59.4139C71.5699 59.1853 71.1341 58.8125 70.8291 58.341C70.5241 57.8694 70.3629 57.3194 70.3653 56.758V33.19C70.3661 32.4179 70.6735 31.6777 71.2201 31.1317C71.7666 30.5858 72.5077 30.2787 73.2806 30.2778H125.756C126.529 30.2787 127.27 30.5858 127.817 31.1318C128.363 31.6777 128.671 32.4179 128.672 33.19V56.758C128.674 57.3194 128.513 57.8694 128.208 58.341C127.903 58.8126 127.467 59.1853 126.954 59.4139C118.33 63.3093 108.983 65.3541 99.5185 65.4161Z" fill="#6C63FF"/>
<path d="M99.5119 46.323C99.1229 46.3233 98.7377 46.246 98.3791 46.0955L56.7664 28.5579C56.2298 28.3318 55.7733 27.9503 55.4557 27.4625C55.1382 26.9748 54.9742 26.4033 54.9849 25.8216C54.9955 25.2399 55.1804 24.6747 55.5156 24.1989C55.8508 23.7232 56.321 23.3586 56.8656 23.1522L98.4788 7.38262C99.149 7.12746 99.8901 7.12903 100.559 7.38704L141.615 23.1566C142.156 23.3646 142.623 23.7293 142.956 24.2039C143.289 24.6786 143.472 25.2416 143.483 25.821C143.494 26.4004 143.331 26.9698 143.016 27.4564C142.701 27.943 142.248 28.3247 141.715 28.5525L100.659 46.0898C100.296 46.244 99.906 46.3233 99.5119 46.323Z" fill="#6C63FF"/>
<path d="M75.225 61.0173C77.3718 61.0173 79.1121 59.2789 79.1121 57.1344C79.1121 54.9899 77.3718 53.2515 75.225 53.2515C73.0782 53.2515 71.3379 54.9899 71.3379 57.1344C71.3379 59.2789 73.0782 61.0173 75.225 61.0173Z" fill="#3F3D56"/>
<path opacity="0.2" d="M141.856 26.0633L100.8 43.6006C100.48 43.7373 100.136 43.8082 99.7877 43.809C99.4396 43.8099 99.0949 43.7407 98.7742 43.6055L57.1615 26.0684C56.6389 25.8534 56.2029 25.4706 55.9225 24.9805C55.739 25.2983 55.6253 25.6515 55.5889 26.0166C55.5525 26.3817 55.5943 26.7504 55.7115 27.0981C55.8287 27.4458 56.0186 27.7646 56.2686 28.0334C56.5186 28.3022 56.823 28.5148 57.1615 28.657L98.7742 46.1941C99.0949 46.3293 99.4396 46.3985 99.7877 46.3976C100.136 46.3968 100.48 46.3259 100.8 46.1892L141.856 28.6519C142.193 28.5084 142.496 28.2951 142.744 28.0262C142.992 27.7573 143.181 27.4389 143.297 27.0919C143.413 26.7449 143.454 26.3773 143.417 26.0134C143.38 25.6494 143.267 25.2974 143.084 24.9805C142.805 25.4667 142.374 25.8473 141.856 26.0633Z" fill="black"/>
<path d="M75.5512 57.1193C75.723 57.1193 75.8878 57.0511 76.0093 56.9297C76.1308 56.8084 76.199 56.6437 76.199 56.4721V34.8175L97.5659 27.0419C97.7377 27.0444 97.9035 26.9787 98.0268 26.8591C98.1501 26.7396 98.2208 26.576 98.2234 26.4043C98.2259 26.2327 98.1601 26.0671 98.0405 25.9439C97.9208 25.8207 97.757 25.7501 97.5852 25.7476L76.2183 33.5232C76.0464 33.5192 75.8754 33.5502 75.7158 33.6142C75.5562 33.6781 75.4112 33.7738 75.2897 33.8954C75.1669 34.0155 75.0695 34.159 75.0031 34.3174C74.9367 34.4758 74.9028 34.6458 74.9033 34.8175V56.4721C74.9033 56.6437 74.9716 56.8083 75.0931 56.9297C75.2146 57.0511 75.3794 57.1192 75.5512 57.1193Z" fill="#3F3D56"/>
</svg>
