<svg width="578" height="431" viewBox="0 0 578 431" fill="none" xmlns="http://www.w3.org/2000/svg">
<g clip-path="url(#clip0_199_4574)">
<path d="M553.223 373.457C553.859 354.467 545.17 335.599 528.266 329.128C532.294 348.536 528.875 370.368 518.806 389.534C514.884 397 509.794 405.001 511.192 412.615C512.061 417.353 515.428 421.024 519.47 423.352C523.512 425.681 528.221 426.838 532.872 427.972L533.696 428.781C544.075 411.45 552.587 392.447 553.223 373.457Z" fill="#F2F2F2"/>
<path d="M528.032 329.484C536.507 341.324 540.83 356.506 539.892 372.121C539.755 375.578 539.097 378.995 537.94 382.255C536.665 385.525 534.638 388.45 532.024 390.792C529.607 393.045 526.911 395.104 525.007 397.833C524.066 399.165 523.404 400.672 523.06 402.266C522.716 403.86 522.697 405.506 523.004 407.108C523.714 410.902 525.796 414.021 527.949 416.984C530.339 420.274 532.881 423.646 533.44 427.964C533.508 428.487 534.339 428.236 534.271 427.713C533.298 420.202 526.788 415.833 524.42 409.042C523.315 405.873 523.216 402.215 525.232 398.924C526.995 396.046 529.774 393.921 532.238 391.658C534.822 389.398 536.891 386.611 538.307 383.484C539.62 380.273 540.406 376.87 540.634 373.408C541.245 365.94 540.638 358.421 538.837 351.147C536.902 343.14 533.455 335.576 528.682 328.862C528.389 328.453 527.741 329.077 528.032 329.484Z" fill="white"/>
<path d="M540.465 367.024C543.189 366.395 545.648 364.932 547.502 362.84C549.355 360.747 550.511 358.129 550.807 355.35C550.849 354.809 550.011 354.836 549.969 355.377C549.698 357.966 548.622 360.404 546.892 362.349C545.163 364.294 542.868 365.648 540.329 366.221C540.276 366.229 540.225 366.248 540.179 366.276C540.133 366.304 540.093 366.341 540.061 366.385C540.029 366.429 540.007 366.478 539.995 366.531C539.982 366.584 539.981 366.638 539.99 366.691C539.999 366.745 540.018 366.795 540.047 366.841C540.076 366.887 540.113 366.926 540.158 366.957C540.202 366.988 540.252 367.01 540.305 367.022C540.357 367.033 540.412 367.034 540.465 367.024Z" fill="white"/>
<path d="M533.379 389.792C531.282 388.336 529.516 386.453 528.199 384.266C526.882 382.079 526.043 379.639 525.738 377.104C525.668 376.582 524.836 376.833 524.906 377.355C525.229 379.991 526.108 382.529 527.484 384.801C528.859 387.073 530.701 389.028 532.887 390.537C533.305 390.822 533.795 390.075 533.379 389.792Z" fill="white"/>
<path d="M535.946 343.794C535.004 344.237 533.964 344.432 532.925 344.36C531.886 344.289 530.883 343.953 530.01 343.385C529.596 343.094 529.107 343.842 529.518 344.13C530.485 344.753 531.593 345.123 532.74 345.204C533.887 345.286 535.037 345.077 536.082 344.597C536.191 344.561 536.284 344.49 536.348 344.394C536.411 344.299 536.44 344.184 536.43 344.07C536.42 344.018 536.399 343.968 536.369 343.925C536.338 343.882 536.298 343.846 536.252 343.819C536.206 343.793 536.155 343.777 536.102 343.773C536.049 343.768 535.996 343.775 535.946 343.794Z" fill="white"/>
<path d="M468.499 362.05C468.751 362.24 469.003 362.429 469.254 362.626C472.621 365.188 475.741 368.059 478.573 371.202C478.796 371.441 479.018 371.687 479.233 371.933C486.017 379.686 491.098 388.776 494.147 398.616C495.397 402.629 496.318 406.737 496.9 410.899C497.717 416.703 498.127 423.127 500.794 427.908C501.065 428.409 501.371 428.891 501.709 429.348L532.492 429.871C532.568 429.837 532.643 429.81 532.719 429.775L533.939 429.853C533.924 429.632 533.904 429.404 533.889 429.183C533.881 429.054 533.866 428.926 533.857 428.798C533.85 428.712 533.842 428.626 533.84 428.548C533.838 428.52 533.835 428.491 533.831 428.47C533.83 428.391 533.82 428.32 533.817 428.249C533.707 426.972 533.59 425.695 533.459 424.418C533.46 424.411 533.46 424.411 533.454 424.404C532.448 414.679 530.601 405.068 527.298 396.252C527.198 395.987 527.1 395.715 526.987 395.449C525.488 391.515 523.632 387.726 521.442 384.131C520.246 382.185 518.938 380.31 517.525 378.516C513.868 373.895 509.405 369.973 504.352 366.94C494.234 360.856 481.806 358.38 469.442 361.781C469.126 361.869 468.816 361.956 468.499 362.05Z" fill="#F2F2F2"/>
<path d="M468.506 362.446C483.199 365.746 496.258 373.952 504.932 385.662C506.9 388.182 508.405 391.032 509.376 394.078C510.239 397.25 510.229 400.596 509.345 403.763C508.581 406.838 507.452 409.945 507.43 413.049C507.412 414.568 507.754 416.069 508.428 417.431C509.101 418.792 510.088 419.975 511.306 420.883C514.243 423.159 517.98 424.119 521.685 424.925C525.8 425.82 530.097 426.683 533.218 429.423C533.597 429.755 534.178 429.071 533.801 428.739C528.369 423.971 519.959 424.809 513.735 421.403C510.83 419.813 508.516 417.263 508.294 413.69C508.1 410.566 509.261 407.362 510.061 404.251C510.965 401.157 511.098 397.889 510.448 394.732C509.648 391.632 508.265 388.712 506.372 386.13C502.26 380.327 497.132 375.316 491.236 371.339C484.409 366.696 476.762 363.394 468.702 361.608C468.194 361.494 468.002 362.333 468.506 362.446Z" fill="white"/>
<path d="M502.337 381.678C506.471 377.495 507.33 371.24 504.368 367.066C504.076 366.655 503.352 367.183 503.645 367.595C506.419 371.505 505.592 377.277 501.728 381.187C501.321 381.598 501.932 382.087 502.337 381.678Z" fill="white"/>
<path d="M509.933 402.226C507.348 402.51 504.732 402.265 502.245 401.507C499.757 400.749 497.449 399.493 495.461 397.816C495.082 397.485 494.5 398.17 494.879 398.5C496.952 400.241 499.357 401.543 501.948 402.326C504.539 403.109 507.262 403.358 509.952 403.057C510.495 403.006 510.473 402.175 509.933 402.226Z" fill="white"/>
<path d="M484.207 367.849C483.591 368.771 482.78 369.546 481.83 370.119C480.881 370.692 479.817 371.049 478.714 371.163C478.172 371.207 478.194 372.038 478.733 371.994C479.951 371.862 481.126 371.467 482.176 370.836C483.227 370.205 484.127 369.354 484.816 368.34C484.89 368.259 484.93 368.153 484.928 368.044C484.925 367.934 484.88 367.83 484.802 367.753C484.709 367.69 484.596 367.664 484.485 367.682C484.375 367.7 484.275 367.76 484.207 367.849Z" fill="white"/>
<path d="M459.344 351.892C459.408 351.819 458.917 351.758 458.008 351.705V321.177H413.938V323.634H394.1C391.774 323.637 389.544 324.562 387.899 326.207C386.254 327.852 385.329 330.082 385.326 332.408V345.035C385.328 347.361 386.253 349.592 387.898 351.237C389.543 352.882 391.774 353.807 394.1 353.809L414.432 353.835L423.36 353.849H423.974L432.908 353.862L457.861 353.895H460.011C460.325 353.541 459.043 352.246 459.344 351.892Z" fill="#3F3D56"/>
<path d="M459.818 352.459C458.361 354.585 457.18 354.506 456.146 353.131C455.603 352.341 455.165 351.482 454.844 350.578C451.703 342.525 449.649 324.051 443.727 330.511C442.557 331.787 441.37 333.052 440.178 334.304C437.962 336.634 435.649 339.163 433.356 341.397C433.355 341.403 433.408 341.155 433.4 341.161C432.269 342.267 433.121 332.699 432.674 330.006C432.579 329.425 432.423 329.165 432.176 329.397C432.157 329.135 432.145 328.875 432.147 328.61C432.144 328.195 432.165 327.779 432.21 327.365C432.247 326.985 432.298 326.601 432.371 326.214L451.733 222.675C452.243 219.962 453.605 217.484 455.62 215.598C457.635 213.712 460.199 212.518 462.939 212.189C464.237 212.045 465.549 212.091 466.833 212.327L470.358 212.986C471.749 213.246 473.088 213.735 474.319 214.433L474.326 214.434C476.68 215.762 478.56 217.792 479.704 220.241C480.847 222.69 481.197 225.435 480.704 228.092L459.818 352.459Z" fill="#3F3D56"/>
<path d="M294.473 411.437L285.383 407.09L297.87 369.093L311.287 375.51L294.473 411.437Z" fill="#A0616A"/>
<path d="M355.418 405.312C354.757 405.726 354.096 406.133 353.428 406.541C352.099 407.355 350.757 408.156 349.415 408.944C348.74 409.338 348.059 409.732 347.385 410.12V410.14L347.345 410.146L347.331 410.153L346.303 410.407L344.827 406.507L344.146 404.711L343.185 402.167L341.422 397.513L332.141 373.007L346.57 369.448L347.111 371.658H347.118L347.385 372.753L352.426 393.199L353.455 397.379L353.488 397.506L354.109 400.003L354.643 402.167L355.237 404.584L355.418 405.312Z" fill="#A0616A"/>
<path d="M441.496 319.253C440.581 320.722 439.646 322.185 438.705 323.634C436.955 326.331 435.159 328.989 433.316 331.606C433.316 331.613 433.31 331.613 433.303 331.62C432.228 332.616 431.04 333.483 429.764 334.204C429.711 334.244 429.651 334.271 429.597 334.304C428.657 334.823 427.657 335.225 426.619 335.499C426.245 335.593 425.865 335.686 425.491 335.78C424.142 336.1 422.806 336.374 421.478 336.614C419.114 337.035 416.777 337.336 414.453 337.523C414.266 337.543 414.079 337.556 413.892 337.569C404.337 338.27 395.036 337.142 385.327 335.292C380.532 334.384 375.638 333.296 370.57 332.167C368.914 331.793 367.251 331.426 365.569 331.059C365.442 331.032 365.308 330.999 365.175 330.972C362.771 330.445 360.327 329.924 357.823 329.41C354.671 328.762 351.42 328.134 348.041 327.54L348.281 332.301C348.481 335.963 349.243 339.573 350.538 343.005C351.981 347.225 353.122 350.563 350.712 357.514L349.55 360.88C350.152 362.551 350.359 364.339 350.154 366.103C349.949 367.868 349.338 369.561 348.368 371.049L348.134 371.403L357.823 395.915L358.451 397.504H353.49L347.387 397.511H337.043L322.12 367.57L321.405 366.141V366.068L322.948 308.53C322.968 308.022 323.008 307.508 323.075 307.001C323.347 304.694 324.075 302.464 325.218 300.442C326.361 298.419 327.896 296.645 329.732 295.222C331.491 293.847 333.507 292.835 335.661 292.246C337.814 291.657 340.064 291.502 342.278 291.79L347.387 292.451L357.823 293.8L365.175 294.755L365.322 294.775L387.003 297.579L388.559 291.236L388.846 291.129L397.974 287.783L429.544 276.212L429.624 276.185L431.7 275.424L431.948 275.824C432.021 275.945 432.094 276.065 432.161 276.185C434.214 279.865 435.885 283.744 437.149 287.763C439.275 294.329 441.025 301.011 442.391 307.775C442.451 308.069 442.504 308.336 442.551 308.577L442.571 308.65C442.591 308.763 442.604 308.837 442.611 308.857C443.339 311.888 442.831 315.588 441.496 319.253Z" fill="#2F2E41"/>
<path d="M442.828 298.05C442.728 297.622 442.601 297.188 442.467 296.767C441.407 293.581 440.172 290.456 438.768 287.406C437.192 283.934 435.303 280.215 433.052 276.188C431.964 274.238 430.793 272.211 429.54 270.105C428.913 269.05 428.26 267.975 427.584 266.88C427.557 266.83 427.528 266.781 427.497 266.733L427.303 266.413L396.067 270.593L384.435 272.148L383.741 277.944L383.574 279.38C383.567 279.38 383.567 279.38 383.574 279.387L383.106 283.299V283.306L382.485 288.474L382.432 288.468L365.171 286.231L347.383 283.927L337.828 282.692C335.613 282.403 333.364 282.558 331.21 283.147C329.056 283.736 327.04 284.748 325.281 286.124C323.445 287.547 321.911 289.322 320.768 291.344C319.625 293.366 318.896 295.596 318.624 297.903C318.564 298.37 318.524 298.851 318.504 299.325L309.489 320.685C304.095 333.46 300.66 346.976 299.3 360.776L292.689 381.909L293.631 381.996L307.64 383.298L311.339 383.645L319.485 371.753C320.413 370.398 321.295 369.002 322.116 367.573C323.468 365.239 324.671 362.822 325.715 360.335L343.337 318.402C344.699 318.636 346.048 318.858 347.383 319.07C353.559 320.071 359.489 320.888 365.171 321.52C383.647 323.583 399.646 323.744 413.889 321.994C417.888 321.507 421.754 320.866 425.487 320.071C426.856 319.784 428.207 319.475 429.54 319.143C429.854 319.07 430.161 318.996 430.468 318.916C433.228 318.204 435.765 316.812 437.847 314.866C439.929 312.92 441.49 310.483 442.387 307.778C443.458 304.644 443.611 301.268 442.828 298.05Z" fill="#2F2E41"/>
<path d="M297.377 405.233L287.541 400.519L285.999 399.777L283.535 405.827L266.334 409.613C265.484 409.799 264.715 410.253 264.141 410.907C263.567 411.562 263.217 412.383 263.142 413.25C263.067 414.118 263.272 414.986 263.726 415.729C264.181 416.472 264.861 417.05 265.667 417.379L282.473 424.236L287.809 419.435L286.5 425.879L292.83 428.463L299.768 406.381L297.377 405.233Z" fill="#2F2E41"/>
<path d="M357.822 395.916L358.45 397.505H357.822V395.916Z" fill="#2F2E41"/>
<path d="M240.302 280.352C240.302 276.773 239.101 273.868 237.625 273.861H126.455C124.973 273.868 123.777 276.773 123.771 280.352V427.681C123.771 428.013 123.647 428.334 123.424 428.58C123.201 428.826 122.894 428.98 122.563 429.012C121.483 429.116 120.403 429.212 119.324 429.302C119.297 429.302 119.27 429.308 119.244 429.308C118.656 429.362 118.068 429.402 117.481 429.449H117.474C117.172 428.89 116.873 428.326 116.578 427.757C116.478 427.566 116.426 427.353 116.426 427.137V271.932C116.426 270.943 116.466 269.949 116.533 268.967C116.628 267.619 116.795 266.277 117.033 264.947C118.162 258.744 120.713 254.544 123.611 254.531H240.463C240.886 254.534 241.304 254.622 241.691 254.791C242.261 255.043 242.776 255.404 243.207 255.853C243.793 256.462 244.294 257.147 244.696 257.889C246.125 260.407 247.147 264.159 247.507 268.526C247.507 268.566 247.514 268.606 247.514 268.646C247.607 269.728 247.654 270.83 247.648 271.932L247.741 286.241L247.801 294.775L247.981 321.551L248.048 331.059L248.342 428.681C248.342 429.035 248.201 429.375 247.951 429.625C247.7 429.875 247.361 430.016 247.007 430.016H241.638C241.284 430.016 240.944 429.875 240.694 429.625C240.443 429.375 240.303 429.035 240.303 428.681L240.302 280.352Z" fill="#3F3D56"/>
<path d="M161.057 214.835L153.325 248.859L148.383 254.271H144.818L159.511 192.409L160.238 202.919V202.926L161.057 214.835Z" fill="#3F3D56"/>
<path d="M198.273 249.606L152.907 249.319L148.881 249.292L146.01 249.272L142.664 249.252H142.638C142.152 249.253 141.687 249.445 141.342 249.786L135.693 255.435C135.568 255.558 135.466 255.703 135.393 255.862C135.358 255.907 135.328 255.957 135.306 256.009C135.184 256.293 135.133 256.603 135.159 256.911C135.185 257.22 135.286 257.517 135.453 257.777C135.621 258.036 135.85 258.251 136.12 258.402C136.39 258.552 136.693 258.634 137.002 258.64H195.769C196.121 258.639 196.466 258.538 196.764 258.349C197.062 258.16 197.3 257.89 197.451 257.572L197.912 256.57L198.86 254.534L199.935 252.237C200.05 251.992 200.109 251.725 200.109 251.455C200.106 250.968 199.912 250.501 199.569 250.155C199.226 249.809 198.76 249.612 198.273 249.606Z" fill="#3F3D56"/>
<path opacity="0.17" d="M197.912 256.568L197.449 257.574C197.298 257.891 197.06 258.16 196.763 258.349C196.466 258.538 196.122 258.639 195.77 258.641H137.001C136.692 258.635 136.389 258.554 136.119 258.403C135.849 258.253 135.621 258.038 135.453 257.778C135.286 257.518 135.185 257.221 135.16 256.913C135.134 256.605 135.185 256.295 135.308 256.012C135.329 255.959 135.357 255.909 135.393 255.865L197.912 256.568Z" fill="black"/>
<path opacity="0.17" d="M160.238 202.919V202.926L147.656 254.271H144.818L159.511 192.409L160.238 202.919Z" fill="black"/>
<path d="M175.677 212.326L157.869 76.8377C157.804 76.3299 157.54 75.8687 157.135 75.5556L144.875 60.2113L143.773 59.3633C143.365 59.0543 142.852 58.9176 142.345 58.9827L140.502 59.2297C139.993 59.2952 139.532 59.56 139.219 59.9657C138.906 60.3714 138.767 60.8849 138.832 61.3931L157.288 201.776V201.783L158.417 210.37L159.759 220.566V220.579L161.842 236.445C161.875 236.716 161.967 236.978 162.111 237.211C162.255 237.444 162.448 237.642 162.677 237.793C162.901 237.948 163.156 238.053 163.424 238.101C163.693 238.15 163.968 238.14 164.233 238.074L165.401 237.78C165.849 237.665 166.241 237.395 166.51 237.019L167.03 236.278L167.271 235.93L175.337 213.695C175.62 213.299 175.742 212.809 175.677 212.326Z" fill="#3F3D56"/>
<path opacity="0.17" d="M144.872 60.212L167.273 235.934L167.029 236.277L166.51 237.016C166.242 237.393 165.849 237.663 165.401 237.778L164.231 238.072C163.966 238.138 163.691 238.147 163.422 238.099C163.153 238.051 162.898 237.946 162.672 237.793C162.447 237.639 162.256 237.44 162.113 237.207C161.97 236.975 161.877 236.715 161.841 236.445L138.835 61.3954C138.768 60.8871 138.906 60.3731 139.218 59.9665C139.53 59.5598 139.991 59.2938 140.5 59.2268L142.347 58.984C142.598 58.9501 142.853 58.9665 143.097 59.0321C143.341 59.0977 143.57 59.2114 143.77 59.3663L144.872 60.212Z" fill="black"/>
<path d="M145.532 65.2378L157.42 82.2054L171.549 189.71L163.889 204.907L145.532 65.2378Z" fill="#6C63FF"/>
<path d="M401.01 428.898L392.857 429.051L415.516 350.34L423.668 352.858L401.01 428.898Z" fill="#3F3D56"/>
<path d="M454.476 429.048L446.33 428.895L423.975 353.849L423.667 352.861L428.896 351.245C429.931 351.265 431.006 351.278 432.114 351.291L432.909 353.862L454.476 429.048Z" fill="#3F3D56"/>
<path d="M354.397 397.844L344.091 401.415L342.474 401.974L344.979 408.006L335.421 422.799C334.948 423.53 334.721 424.393 334.773 425.262C334.825 426.131 335.154 426.961 335.711 427.63C336.269 428.299 337.026 428.772 337.871 428.98C338.716 429.188 339.606 429.121 340.411 428.787L357.178 421.834L357.591 414.669L361.195 420.169L367.511 417.551L356.904 396.979L354.397 397.844Z" fill="#2F2E41"/>
<path d="M291.846 176.912C292.334 177.864 293.026 178.697 293.871 179.353C294.717 180.009 295.696 180.471 296.739 180.708C297.783 180.944 298.866 180.949 299.912 180.722C300.957 180.495 301.94 180.041 302.792 179.393L324.463 193.779L324.504 180.262L303.919 168.673C302.735 167.315 301.094 166.438 299.307 166.209C297.52 165.98 295.711 166.414 294.223 167.43C292.735 168.445 291.671 169.972 291.233 171.719C290.795 173.467 291.013 175.314 291.846 176.912Z" fill="#A0616A"/>
<path d="M308.035 183.159L318.146 171.656L359.315 196.097L413.89 191.099C416.587 190.852 419.306 191.202 421.853 192.124C424.4 193.046 426.713 194.517 428.628 196.434C430.542 198.35 432.012 200.664 432.931 203.212C433.851 205.76 434.198 208.48 433.948 211.177C433.492 216.049 431.122 220.54 427.358 223.666C423.594 226.792 418.744 228.298 413.872 227.852L352.408 222.163L308.035 183.159Z" fill="#E6E6E6"/>
<path d="M434.702 183.337L434.607 183.218L408.812 180.672L391.385 211.372C376.403 229.687 387.29 242.317 387.941 244.195L382.741 268.172L383.907 276.196L384.489 278.58L443.847 309.596L431.647 268.952L443.559 231.887C446.201 223.691 446.774 214.97 445.228 206.499C443.683 198.028 440.067 190.071 434.702 183.337Z" fill="#E6E6E6"/>
<path d="M462.963 156.322C462.976 156.649 462.983 156.976 462.983 157.297C462.977 160.833 462.135 164.318 460.524 167.467C458.914 170.615 456.582 173.338 453.718 175.413C450.854 177.488 447.54 178.855 444.046 179.404C440.552 179.953 436.978 179.667 433.616 178.57L429.496 177.228C429.463 177.215 429.423 177.208 429.389 177.195L422.599 174.978C422.576 174.691 422.581 174.403 422.612 174.117C412.483 169.79 426.485 155.574 429.964 144.897C430.505 143.234 411.908 144.476 412.79 143.054C412.596 142.954 412.402 142.854 412.222 142.754C415.363 137.796 420.007 133.973 425.475 131.842C430.944 129.711 436.95 129.384 442.617 130.908C442.764 130.941 442.918 130.988 443.064 131.028C456.259 131.355 463.19 140.55 463.19 152.489C463.189 153.77 463.113 155.05 462.963 156.322Z" fill="#2F2E41"/>
<path d="M451.531 161.022C449.761 166.444 445.91 170.941 440.825 173.524C435.74 176.107 429.838 176.565 424.415 174.797C423.801 174.597 423.2 174.37 422.612 174.116C417.677 172.001 413.712 168.116 411.497 163.226C409.281 158.335 408.975 152.792 410.64 147.688C411.168 146.062 411.89 144.506 412.79 143.054C415.554 138.577 419.864 135.269 424.903 133.756C429.943 132.243 435.362 132.63 440.135 134.844C444.908 137.058 448.704 140.945 450.805 145.769C452.905 150.593 453.163 156.02 451.531 161.022Z" fill="#A0616A"/>
<path d="M429.496 177.228C429.463 177.215 429.423 177.208 429.39 177.195L422.599 174.978C422.577 174.691 422.581 174.403 422.612 174.117C422.814 171.881 424.384 169.539 426.49 167.012C427.847 165.395 428.79 163.473 429.238 161.411C429.686 159.349 429.626 157.208 429.063 155.175C428.5 153.141 427.451 151.274 426.006 149.736C424.561 148.198 422.764 147.035 420.769 146.346C420.711 146.326 420.653 146.306 420.596 146.286C417.921 145.393 415.313 144.313 412.79 143.054C412.596 142.954 412.403 142.854 412.222 142.753C410.526 141.819 409.298 140.884 408.757 139.989C409.565 137.509 410.855 135.212 412.551 133.23C414.248 131.247 416.318 129.619 418.644 128.437C420.97 127.255 423.505 126.543 426.107 126.342C428.708 126.14 431.323 126.453 433.803 127.262L437.743 128.544C442.711 130.159 446.84 133.673 449.228 138.32C452.006 140.31 454.196 143.234 455.912 146.686C464.539 164.007 447.886 183.131 429.496 177.228Z" fill="#2F2E41"/>
<path d="M442.497 281.981C442.497 283.155 442.141 284.302 441.476 285.27C440.811 286.238 439.868 286.982 438.771 287.403C438.251 287.602 437.704 287.724 437.149 287.763C437.002 287.777 436.848 287.783 436.701 287.783H425.49V342.177C425.323 342.397 425.15 342.617 424.976 342.838C424.015 344.066 423.04 345.295 422.051 346.503C421.838 346.771 421.624 347.031 421.417 347.291C421.09 347.685 420.769 348.079 420.449 348.467C420.335 348.6 420.229 348.727 420.122 348.86C419.574 349.515 419.027 350.169 418.466 350.824V350.83C418.459 350.837 418.459 350.837 418.459 350.844L418.179 351.164C417.731 351.692 417.284 352.226 416.823 352.753C416.197 352.406 415.644 351.941 415.194 351.385C414.915 351.049 414.677 350.682 414.486 350.289C414.479 350.283 414.479 350.276 414.473 350.263C414.465 350.248 414.458 350.232 414.453 350.216C414.078 349.435 413.886 348.578 413.892 347.712V287.783H388.759C388.017 287.788 387.281 287.645 386.595 287.363C385.73 287.017 384.961 286.468 384.354 285.761C383.747 285.054 383.32 284.211 383.11 283.303V283.296C382.797 281.978 382.962 280.591 383.577 279.383C383.57 279.377 383.57 279.377 383.577 279.377C383.836 278.849 384.182 278.369 384.599 277.955V277.948C384.599 277.941 384.599 277.941 384.605 277.935C385.146 277.381 385.792 276.941 386.506 276.641C387.219 276.341 387.985 276.186 388.759 276.185H436.701C438.238 276.186 439.712 276.797 440.799 277.884C441.886 278.97 442.496 280.444 442.497 281.981Z" fill="#3F3D56"/>
<path d="M474.422 169.717C472.076 169.279 469.667 169.306 467.332 169.799C464.997 170.291 462.781 171.239 460.813 172.587C458.844 173.936 457.16 175.659 455.857 177.658C454.554 179.657 453.658 181.894 453.219 184.239C452.445 188.383 453.135 192.667 455.171 196.358C457.208 200.049 460.464 202.917 464.382 204.472L458.919 233.686L470.32 235.818L482.403 171.21L474.422 169.717Z" fill="#3F3D56"/>
<path d="M458.008 148.235C463.171 148.235 467.357 144.05 467.357 138.887C467.357 133.724 463.171 129.539 458.008 129.539C452.845 129.539 448.66 133.724 448.66 138.887C448.66 144.05 452.845 148.235 458.008 148.235Z" fill="#2F2E41"/>
<path d="M566.982 165.728C562.926 167.082 558.59 167.312 554.314 167.386C541.875 167.601 529.12 166.511 517.798 161.353C506.476 156.194 496.728 146.391 494.211 134.207C493.127 128.955 493.254 123.106 489.945 118.887C486.017 113.879 478.124 113.196 472.626 116.402C467.128 119.607 463.917 125.845 462.984 132.14L460.769 135.741C460.821 138.059 463.329 139.601 465.638 139.818C467.947 140.035 470.268 139.399 472.58 139.571C477.648 139.948 481.779 144.283 483.256 149.145C484.733 154.007 484.022 159.266 482.758 164.188C481.494 169.11 479.688 173.911 478.967 178.941C478.245 183.972 478.735 189.431 481.694 193.561C483.915 196.662 487.301 198.717 490.742 200.361C499.074 204.342 508.2 206.38 517.433 206.323C526.667 206.267 535.767 204.116 544.049 200.033C552.331 195.95 559.579 190.042 565.248 182.752C570.916 175.463 574.857 166.983 576.773 157.95C574.835 161.762 571.039 164.375 566.982 165.728Z" fill="#2F2E41"/>
<path d="M387.504 363.405H368.464C367.417 363.404 366.405 363.026 365.615 362.339C364.824 361.652 364.308 360.703 364.161 359.666C362.985 351.015 362.985 342.244 364.161 333.593C364.306 332.569 364.812 331.63 365.587 330.944C366.363 330.259 367.357 329.873 368.391 329.855C374.382 327.169 380.833 327.17 387.57 329.854C388.197 329.863 388.815 330.008 389.38 330.281C389.946 330.553 390.444 330.946 390.841 331.432C391.256 331.937 391.552 332.529 391.709 333.163C391.866 333.797 391.88 334.458 391.749 335.098C390.22 342.71 390.22 350.549 391.749 358.161C391.88 358.801 391.866 359.462 391.709 360.096C391.552 360.73 391.256 361.322 390.841 361.827C390.437 362.321 389.928 362.72 389.351 362.992C388.774 363.265 388.143 363.406 387.504 363.405Z" fill="#6C63FF"/>
<path d="M385.51 339.795H369.485C369.219 339.795 368.965 339.69 368.777 339.502C368.589 339.314 368.483 339.059 368.483 338.794C368.483 338.528 368.589 338.273 368.777 338.085C368.965 337.898 369.219 337.792 369.485 337.792H385.51C385.776 337.792 386.031 337.898 386.219 338.085C386.406 338.273 386.512 338.528 386.512 338.794C386.512 339.059 386.406 339.314 386.219 339.502C386.031 339.69 385.776 339.795 385.51 339.795Z" fill="white"/>
<path d="M385.51 347.807H369.485C369.219 347.807 368.965 347.702 368.777 347.514C368.589 347.326 368.483 347.071 368.483 346.806C368.483 346.54 368.589 346.285 368.777 346.098C368.965 345.91 369.219 345.804 369.485 345.804H385.51C385.776 345.804 386.031 345.91 386.219 346.098C386.406 346.285 386.512 346.54 386.512 346.806C386.512 347.071 386.406 347.326 386.219 347.514C386.031 347.702 385.776 347.807 385.51 347.807Z" fill="white"/>
<path d="M385.51 355.821H369.485C369.219 355.821 368.965 355.715 368.777 355.527C368.589 355.339 368.483 355.085 368.483 354.819C368.483 354.553 368.589 354.299 368.777 354.111C368.965 353.923 369.219 353.817 369.485 353.817H385.51C385.776 353.817 386.031 353.923 386.219 354.111C386.406 354.299 386.512 354.553 386.512 354.819C386.512 355.085 386.406 355.339 386.219 355.527C386.031 355.715 385.776 355.821 385.51 355.821Z" fill="white"/>
<path d="M159.985 151.173V151.171C160.006 151.009 160.089 150.861 160.216 150.758C160.344 150.656 160.507 150.608 160.67 150.624L263.688 150.899C263.85 150.883 264.012 150.932 264.139 151.035C264.266 151.137 264.348 151.285 264.368 151.448V151.449C264.347 151.612 264.264 151.76 264.137 151.862C264.009 151.964 263.846 152.013 263.683 151.996L160.665 151.722C160.503 151.737 160.341 151.688 160.214 151.586C160.087 151.483 160.005 151.335 159.985 151.173Z" fill="#3F3D56"/>
<path d="M187.227 214.621L182.853 219.432C182.65 219.603 182.403 219.712 182.14 219.746C181.877 219.78 181.61 219.738 181.37 219.624C180.645 219.368 179.999 218.925 179.498 218.341C176.372 214.793 172.863 211.602 169.034 208.827C168.405 208.384 167.903 207.783 167.579 207.085C167.447 206.861 167.38 206.604 167.386 206.344C167.392 206.083 167.47 205.83 167.611 205.611C167.655 202.979 169.138 201.348 172.019 200.763C172.524 200.237 173.666 200.437 174.689 201.235C178.897 204.518 182.851 208.114 186.519 211.991C187.42 212.944 187.724 214.074 187.227 214.621Z" fill="#6C63FF"/>
<path d="M175.985 204.265L172.304 208.314C172.177 208.454 171.87 208.383 171.619 208.154C171.368 207.926 171.268 207.628 171.395 207.488L175.077 203.439C175.204 203.299 175.51 203.37 175.761 203.599C176.012 203.827 176.113 204.125 175.985 204.265Z" fill="white"/>
<path d="M179.62 207.57L175.939 211.62C175.811 211.759 175.505 211.688 175.254 211.459C175.003 211.231 174.903 210.933 175.03 210.793L178.711 206.744C178.838 206.604 179.145 206.676 179.396 206.904C179.647 207.132 179.747 207.43 179.62 207.57Z" fill="white"/>
<path d="M183.256 210.876L179.574 214.925C179.447 215.065 179.141 214.993 178.89 214.765C178.639 214.537 178.538 214.239 178.665 214.099L182.347 210.049C182.474 209.91 182.781 209.981 183.032 210.21C183.283 210.438 183.383 210.736 183.256 210.876Z" fill="white"/>
<path d="M577.364 429.433C577.364 429.538 577.344 429.641 577.304 429.738C577.264 429.834 577.206 429.922 577.132 429.996C577.058 430.07 576.97 430.128 576.874 430.168C576.777 430.208 576.674 430.228 576.569 430.228H0.794597C0.583857 430.228 0.381746 430.144 0.232731 429.995C0.083715 429.846 0 429.644 0 429.433C0 429.223 0.083715 429.02 0.232731 428.871C0.381746 428.722 0.583857 428.639 0.794597 428.639H576.569C576.674 428.638 576.777 428.659 576.874 428.699C576.97 428.738 577.058 428.797 577.132 428.871C577.206 428.945 577.264 429.032 577.304 429.129C577.344 429.225 577.364 429.329 577.364 429.433Z" fill="#CCCCCC"/>
<path d="M393.083 339.066C394.004 338.522 394.795 337.782 395.4 336.899C396.004 336.016 396.408 335.011 396.582 333.956C396.756 332.9 396.697 331.819 396.408 330.788C396.119 329.758 395.608 328.803 394.91 327.992L407.986 305.505L394.49 306.266L384.143 327.503C382.857 328.765 382.079 330.455 381.957 332.253C381.834 334.05 382.375 335.83 383.477 337.256C384.579 338.681 386.165 339.652 387.936 339.986C389.706 340.32 391.538 339.992 393.083 339.066Z" fill="#A0616A"/>
<path d="M398.359 322.534L386.276 313.123L408.231 270.576L400.005 216.394C399.598 213.716 399.786 210.981 400.555 208.384C401.325 205.787 402.656 203.39 404.456 201.366C406.255 199.341 408.478 197.737 410.967 196.668C413.456 195.599 416.15 195.091 418.858 195.18C423.747 195.346 428.372 197.446 431.716 201.018C435.059 204.589 436.85 209.342 436.694 214.232L434.661 275.925L398.359 322.534Z" fill="#E6E6E6"/>
<path d="M293.578 188.47H252.779C251.686 188.469 250.638 188.034 249.865 187.261C249.091 186.488 248.657 185.439 248.655 184.346V130.324C248.657 129.231 249.091 128.183 249.865 127.409C250.638 126.636 251.686 126.201 252.779 126.2H293.578C294.671 126.201 295.719 126.636 296.493 127.409C297.266 128.183 297.701 129.231 297.702 130.324V184.346C297.701 185.439 297.266 186.488 296.493 187.261C295.719 188.034 294.671 188.469 293.578 188.47Z" fill="#E6E6E6"/>
<path d="M290.71 185.033H255.647C254.676 185.032 253.746 184.646 253.059 183.96C252.373 183.273 251.986 182.342 251.985 181.372V133.299C251.986 132.329 252.373 131.398 253.059 130.711C253.746 130.025 254.676 129.639 255.647 129.638H290.71C291.681 129.639 292.612 130.025 293.298 130.711C293.984 131.398 294.371 132.329 294.372 133.299V181.372C294.371 182.342 293.984 183.273 293.298 183.96C292.612 184.646 291.681 185.032 290.71 185.033Z" fill="white"/>
<path d="M287.212 138.773H259.144C259.024 138.773 258.905 138.75 258.793 138.704C258.682 138.658 258.581 138.591 258.496 138.506C258.41 138.421 258.343 138.32 258.296 138.209C258.25 138.097 258.227 137.978 258.227 137.858C258.227 137.737 258.25 137.618 258.296 137.507C258.343 137.396 258.41 137.295 258.496 137.21C258.581 137.125 258.682 137.057 258.793 137.011C258.905 136.965 259.024 136.942 259.144 136.942H287.212C287.332 136.942 287.451 136.965 287.563 137.011C287.674 137.057 287.775 137.125 287.861 137.21C287.946 137.295 288.014 137.396 288.06 137.507C288.106 137.618 288.13 137.737 288.13 137.858C288.13 137.978 288.106 138.097 288.06 138.209C288.014 138.32 287.946 138.421 287.861 138.506C287.775 138.591 287.674 138.658 287.563 138.704C287.451 138.75 287.332 138.773 287.212 138.773Z" fill="#6C63FF"/>
<path d="M287.212 142.39H259.145C258.902 142.39 258.669 142.294 258.498 142.122C258.326 141.951 258.229 141.718 258.229 141.475C258.229 141.232 258.326 140.999 258.498 140.828C258.669 140.656 258.902 140.56 259.145 140.56H287.212C287.332 140.56 287.451 140.583 287.563 140.629C287.674 140.675 287.775 140.743 287.86 140.828C287.945 140.913 288.012 141.014 288.058 141.125C288.104 141.236 288.128 141.355 288.128 141.475C288.128 141.595 288.104 141.714 288.058 141.825C288.012 141.936 287.945 142.037 287.86 142.122C287.775 142.207 287.674 142.275 287.563 142.321C287.451 142.367 287.332 142.39 287.212 142.39Z" fill="#6C63FF"/>
<path d="M271.311 146.008H259.145C258.902 146.008 258.669 145.911 258.498 145.739C258.326 145.568 258.229 145.335 258.229 145.092C258.229 144.849 258.326 144.617 258.498 144.445C258.669 144.273 258.902 144.177 259.145 144.177H271.311C271.554 144.177 271.787 144.273 271.959 144.445C272.13 144.617 272.227 144.849 272.227 145.092C272.227 145.335 272.13 145.568 271.959 145.739C271.787 145.911 271.554 146.008 271.311 146.008Z" fill="#6C63FF"/>
<path d="M287.212 153.583H259.144C259.024 153.583 258.905 153.56 258.793 153.514C258.682 153.468 258.581 153.4 258.496 153.315C258.41 153.23 258.343 153.129 258.296 153.018C258.25 152.907 258.227 152.788 258.227 152.667C258.227 152.547 258.25 152.428 258.296 152.316C258.343 152.205 258.41 152.104 258.496 152.019C258.581 151.934 258.682 151.867 258.793 151.821C258.905 151.775 259.024 151.752 259.144 151.752H287.212C287.332 151.752 287.451 151.775 287.563 151.821C287.674 151.867 287.775 151.934 287.861 152.019C287.946 152.104 288.014 152.205 288.06 152.316C288.106 152.428 288.13 152.547 288.13 152.667C288.13 152.788 288.106 152.907 288.06 153.018C288.014 153.129 287.946 153.23 287.861 153.315C287.775 153.4 287.674 153.468 287.563 153.514C287.451 153.56 287.332 153.583 287.212 153.583Z" fill="#E4E4E4"/>
<path d="M287.212 157.2H259.144C259.024 157.2 258.905 157.177 258.793 157.131C258.682 157.085 258.581 157.018 258.496 156.933C258.41 156.848 258.343 156.747 258.296 156.635C258.25 156.524 258.227 156.405 258.227 156.285C258.227 156.164 258.25 156.045 258.296 155.934C258.343 155.822 258.41 155.721 258.496 155.636C258.581 155.551 258.682 155.484 258.793 155.438C258.905 155.392 259.024 155.369 259.144 155.369H287.212C287.332 155.369 287.452 155.392 287.563 155.438C287.674 155.484 287.775 155.551 287.861 155.636C287.946 155.721 288.014 155.822 288.06 155.934C288.106 156.045 288.13 156.164 288.13 156.285C288.13 156.405 288.106 156.524 288.06 156.635C288.014 156.747 287.946 156.848 287.861 156.933C287.775 157.018 287.674 157.085 287.563 157.131C287.452 157.177 287.332 157.2 287.212 157.2Z" fill="#E4E4E4"/>
<path d="M271.311 160.817H259.145C258.902 160.817 258.669 160.721 258.498 160.549C258.326 160.377 258.229 160.145 258.229 159.902C258.229 159.659 258.326 159.426 258.498 159.254C258.669 159.083 258.902 158.986 259.145 158.986H271.311C271.554 158.986 271.787 159.083 271.959 159.254C272.13 159.426 272.227 159.659 272.227 159.902C272.227 160.145 272.13 160.377 271.959 160.549C271.787 160.721 271.554 160.817 271.311 160.817Z" fill="#E4E4E4"/>
<path d="M287.212 168.393H259.145C258.902 168.393 258.669 168.296 258.498 168.125C258.326 167.953 258.229 167.72 258.229 167.477C258.229 167.235 258.326 167.002 258.498 166.83C258.669 166.658 258.902 166.562 259.145 166.562H287.212C287.455 166.562 287.688 166.658 287.859 166.83C288.031 167.002 288.128 167.235 288.128 167.477C288.128 167.72 288.031 167.953 287.859 168.125C287.688 168.296 287.455 168.393 287.212 168.393Z" fill="#E4E4E4"/>
<path d="M287.212 172.01H259.145C258.902 172.01 258.669 171.913 258.498 171.741C258.326 171.57 258.229 171.337 258.229 171.094C258.229 170.851 258.326 170.618 258.498 170.447C258.669 170.275 258.902 170.179 259.145 170.179H287.212C287.455 170.179 287.688 170.275 287.86 170.447C288.031 170.618 288.128 170.851 288.128 171.094C288.128 171.337 288.031 171.57 287.86 171.741C287.688 171.913 287.455 172.01 287.212 172.01Z" fill="#E4E4E4"/>
<path d="M271.311 175.627H259.145C258.902 175.627 258.669 175.53 258.498 175.359C258.326 175.187 258.229 174.954 258.229 174.711C258.229 174.469 258.326 174.236 258.498 174.064C258.669 173.892 258.902 173.796 259.145 173.796H271.311C271.554 173.796 271.787 173.892 271.959 174.064C272.13 174.236 272.227 174.469 272.227 174.711C272.227 174.954 272.13 175.187 271.959 175.359C271.787 175.53 271.554 175.627 271.311 175.627Z" fill="#E4E4E4"/>
<path d="M154.743 116.491L264.194 22.8735H264.367V24.2477H264.701L155.637 117.535L154.743 116.491Z" fill="#2F2E41"/>
<path d="M230.31 224.003H179.985C179.199 224.004 178.445 224.317 177.889 224.873C177.333 225.428 177.02 226.182 177.02 226.969V258.301C177.02 259.087 177.333 259.841 177.889 260.397C178.445 260.953 179.199 261.266 179.985 261.266H230.31C231.097 261.266 231.85 260.953 232.406 260.397C232.962 259.841 233.275 259.087 233.276 258.301V226.969C233.275 226.182 232.962 225.428 232.406 224.873C231.85 224.317 231.097 224.004 230.31 224.003Z" fill="white"/>
<path d="M230.31 224.003H179.985C179.199 224.004 178.445 224.317 177.889 224.873C177.333 225.428 177.02 226.182 177.02 226.969V258.301C177.02 259.087 177.333 259.841 177.889 260.397C178.445 260.953 179.199 261.266 179.985 261.266H230.31C231.097 261.266 231.85 260.953 232.406 260.397C232.962 259.841 233.275 259.087 233.276 258.301V226.969C233.275 226.182 232.962 225.428 232.406 224.873C231.85 224.317 231.097 224.004 230.31 224.003ZM231.284 246.509C231.272 249.699 230.01 252.757 227.769 255.027C225.528 257.298 222.487 258.599 219.298 258.653C214.191 258.719 222.123 258.745 215.964 258.745C201.881 258.745 187.197 258.611 181.718 258.523C180.997 258.509 180.31 258.213 179.805 257.698C179.299 257.184 179.015 256.493 179.012 255.772V226.971C179.012 226.713 179.115 226.465 179.297 226.282C179.479 226.099 179.727 225.996 179.985 225.995H230.308C230.567 225.996 230.814 226.098 230.997 226.281C231.18 226.463 231.283 226.71 231.284 226.968V246.509Z" fill="#CACACA"/>
<path d="M223.672 244.001H185.329C184.99 244 184.659 243.895 184.382 243.699C184.104 243.504 183.894 243.228 183.78 242.908L177.858 226.294C177.77 226.046 177.742 225.781 177.778 225.52C177.813 225.259 177.911 225.011 178.063 224.795C178.214 224.58 178.415 224.404 178.649 224.283C178.882 224.162 179.142 224.098 179.405 224.098L230.829 224.006H230.831C231.103 224.006 231.371 224.074 231.611 224.203C231.85 224.332 232.054 224.518 232.204 224.746C232.354 224.973 232.445 225.234 232.469 225.505C232.493 225.776 232.45 226.049 232.342 226.299L225.183 243.004C225.057 243.3 224.846 243.552 224.577 243.729C224.308 243.906 223.994 244.001 223.672 244.001Z" fill="#CACACA"/>
<path d="M205.119 248.097C207.381 248.097 209.216 246.263 209.216 244C209.216 241.738 207.381 239.903 205.119 239.903C202.856 239.903 201.021 241.738 201.021 244C201.021 246.263 202.856 248.097 205.119 248.097Z" fill="#3F3D56"/>
<path d="M94.9049 408.923C94.1036 414.826 90.0906 420.154 84.929 423.633C83.6993 424.464 82.4015 425.19 81.0495 425.803C79.5631 426.474 78.03 427.036 76.4623 427.486C69.5847 429.496 62.1529 429.582 54.9214 429.623C47.6098 429.669 40.3004 429.716 32.9932 429.763C27.2307 429.796 21.2813 429.796 15.9595 427.586C15.8799 427.557 15.8019 427.523 15.7258 427.486C10.4975 425.229 6.04375 420.268 6.17061 414.592C6.22162 412.592 6.78736 410.64 7.81322 408.923C8.49228 407.769 9.30838 406.702 10.2437 405.745C13.1417 402.74 17.1614 400.383 20.9274 398.486C27.1372 395.368 34.1551 391.322 35.9713 384.911C36.163 384.237 36.2926 383.546 36.3586 382.848C36.7859 378.441 34.6425 374.388 31.9115 370.762C31.6444 370.402 31.364 370.041 31.0768 369.681C30.4625 368.913 29.8282 368.158 29.2005 367.437C28.9334 367.13 28.6663 366.816 28.3926 366.502C25.8686 363.578 23.3245 360.453 21.9957 356.96C21.4237 355.498 21.1053 353.949 21.0543 352.38C20.9074 346.711 27.2441 341.002 32.0384 343.679C34.3888 343.452 36.7392 343.219 39.0896 342.978C41.9742 342.691 44.8454 342.404 47.7233 342.11H47.73C48.3777 342.057 49.012 341.99 49.6463 341.923C55.6359 341.329 61.6209 340.73 67.6015 340.127C70.2591 339.867 73.384 339.766 75.1135 341.81C76.9964 344.04 76.0216 347.566 74.1586 349.816C72.2957 352.059 69.7115 353.649 67.9621 355.972C65.6985 358.977 65.171 362.776 65.8187 366.502C66.0063 367.584 66.2878 368.648 66.66 369.681C67.3138 371.526 68.2193 373.272 69.351 374.869C73.2772 380.371 79.0931 384.164 84.2546 388.524C89.4229 392.891 94.2572 398.433 94.965 405.15C94.985 405.344 95.0051 405.544 95.0117 405.745C95.0867 406.805 95.0509 407.87 94.9049 408.923Z" fill="#E6E6E6"/>
<path d="M52.9129 347.782C47.7026 342.635 43.2646 336.76 39.7369 330.342C36.2197 323.957 33.6219 317.107 32.0204 309.995C30.3968 302.777 29.8591 295.357 30.4249 287.981C31.5984 272.958 37.1496 258.609 46.392 246.707C46.9563 245.983 47.5342 245.27 48.1256 244.568C48.785 243.783 49.9053 244.914 49.2506 245.693C39.8191 257.002 33.9103 270.828 32.2553 285.461C31.0583 296.642 32.3949 307.949 36.1658 318.544C39.9367 329.138 46.0452 338.747 54.0378 346.657C54.768 347.377 53.6429 348.502 52.9129 347.782Z" fill="#E6E6E6"/>
<path d="M45.751 248.058C46.395 247.817 47.0258 247.542 47.6404 247.234C47.6715 247.282 47.7018 247.33 47.7329 247.378L45.751 248.058Z" fill="#E6E6E6"/>
<path d="M58.0331 234.025C57.7727 235.483 57.3026 236.895 56.6376 238.218C54.801 241.906 51.8757 244.941 48.2576 246.912C48.0573 247.019 47.8503 247.132 47.6433 247.233C47.3962 246.845 47.1425 246.458 46.9021 246.071C45.1978 243.533 43.9378 240.724 43.1762 237.764C42.4016 234.285 42.8223 230.379 45.0525 227.595C47.276 224.81 51.5228 223.562 54.601 225.364C55.4897 225.895 56.2439 226.624 56.8045 227.495C56.4973 227.875 56.1901 228.249 55.883 228.63C55.856 228.665 55.827 228.698 55.7962 228.73C55.5291 229.064 55.2554 229.391 54.9883 229.725C53.8732 231.094 52.7647 232.469 51.6496 233.831C53.2213 234.12 54.8208 234.23 56.4172 234.158C56.5441 234.152 56.6776 234.145 56.8045 234.138C57.2118 234.112 57.6258 234.078 58.0331 234.025Z" fill="#E6E6E6"/>
<path d="M35.5105 261.408L35.0832 266.977L34.9697 268.486C34.8495 268.426 34.7226 268.366 34.6024 268.306C30.4491 266.244 26.7836 263.32 23.8507 259.729C20.9179 256.137 18.7853 251.961 17.5954 247.48C17.1976 245.925 16.9186 244.342 16.7607 242.745C18.9242 242.412 21.0943 242.071 23.2577 241.737C21.5062 239.459 19.3122 237.558 16.8075 236.148C17.3786 230.576 19.3923 225.248 22.6501 220.69C23.211 230.025 32.9865 235.961 36.5655 244.595C37.6635 247.297 38.1389 250.211 37.9562 253.122C37.7736 256.033 36.9377 258.865 35.5105 261.408Z" fill="#E6E6E6"/>
<path d="M33.6546 310.32C33.1338 310.346 32.613 310.36 32.0989 310.353C27.6553 310.325 23.2643 309.389 19.195 307.604C15.1258 305.818 11.4642 303.221 8.43461 299.97C5.98218 297.284 4.01031 294.196 2.60536 290.842C2.6521 290.835 2.69216 290.829 2.7389 290.822C4.90234 290.488 7.07246 290.147 9.23589 289.814C6.93818 286.82 3.88434 284.492 0.388507 283.07C-0.0842789 280.052 -0.120262 276.983 0.281668 273.955C5.16943 281.921 16.5942 282.562 23.8124 288.492C27.2548 291.361 29.6015 295.33 30.4563 299.729C30.6693 300.816 30.7833 301.92 30.7968 303.028C30.8035 303.295 30.8035 303.555 30.7968 303.816L30.9571 304.176L33.6546 310.32Z" fill="#E6E6E6"/>
<path d="M55.1288 319.541C53.7466 321.237 52.3644 322.946 50.9822 324.642C52.6815 324.955 54.4127 325.058 56.1371 324.949C54.6058 330.434 51.6662 335.422 47.6102 339.419C47.2296 339.793 46.8356 340.16 46.435 340.507C46.3549 340.581 46.268 340.654 46.1879 340.728L45.8274 339.706L45.8207 339.699L43.7774 334.044C41.1851 331.438 39.3899 328.146 38.6025 324.555V324.542C38.1236 322.44 38.0129 320.271 38.2754 318.132C39.4172 308.857 47.2563 300.517 45.3065 291.376C49.6026 294.855 52.9359 299.377 54.9886 304.51C53.8735 305.879 52.765 307.255 51.6499 308.617C53.2216 308.906 54.8211 309.016 56.4175 308.944C56.9767 311.204 57.2813 313.52 57.3256 315.848C57.3323 316.182 57.3323 316.509 57.3256 316.843C56.6245 317.711 55.9167 318.573 55.2156 319.441C55.1886 319.476 55.1596 319.509 55.1288 319.541Z" fill="#E6E6E6"/>
<path d="M299.587 45.5769H258.788C257.695 45.5756 256.646 45.1407 255.873 44.3676C255.1 43.5944 254.665 42.5462 254.664 41.4528V4.12409C254.665 3.0307 255.1 1.98244 255.873 1.20929C256.646 0.436138 257.695 0.00124065 258.788 0H299.587C300.68 0.00123535 301.728 0.436137 302.501 1.20929C303.275 1.98244 303.709 3.03069 303.711 4.12409V41.4528C303.709 42.5462 303.275 43.5944 302.501 44.3676C301.728 45.1407 300.68 45.5756 299.587 45.5769Z" fill="#E6E6E6"/>
<path d="M296.719 42.1394H261.656C260.685 42.1383 259.754 41.7522 259.068 41.0657C258.381 40.3792 257.995 39.4485 257.994 38.4777V7.09875C257.995 6.12794 258.381 5.19719 259.068 4.51072C259.754 3.82425 260.685 3.43811 261.656 3.43701H296.719C297.69 3.43811 298.62 3.82425 299.307 4.51072C299.993 5.19719 300.379 6.12793 300.38 7.09875V38.4777C300.379 39.4485 299.993 40.3792 299.307 41.0657C298.62 41.7522 297.69 42.1383 296.719 42.1394Z" fill="white"/>
<path d="M293.222 12.5729H265.154C265.034 12.5733 264.914 12.5498 264.803 12.504C264.692 12.4581 264.591 12.3907 264.505 12.3057C264.42 12.2207 264.352 12.1196 264.306 12.0084C264.26 11.8972 264.236 11.778 264.236 11.6576C264.236 11.5371 264.26 11.4179 264.306 11.3067C264.352 11.1955 264.42 11.0945 264.505 11.0094C264.591 10.9244 264.692 10.857 264.803 10.8112C264.914 10.7653 265.034 10.7419 265.154 10.7422H293.222C293.342 10.7419 293.461 10.7653 293.573 10.8112C293.684 10.857 293.785 10.9244 293.87 11.0094C293.956 11.0945 294.023 11.1955 294.069 11.3067C294.116 11.4179 294.139 11.5371 294.139 11.6576C294.139 11.778 294.116 11.8972 294.069 12.0084C294.023 12.1196 293.956 12.2207 293.87 12.3057C293.785 12.3907 293.684 12.4581 293.573 12.504C293.461 12.5498 293.342 12.5733 293.222 12.5729Z" fill="#6C63FF"/>
<path d="M293.221 16.1897H265.154C264.911 16.1897 264.678 16.0933 264.506 15.9216C264.335 15.7499 264.238 15.5171 264.238 15.2743C264.238 15.0315 264.335 14.7987 264.506 14.627C264.678 14.4553 264.911 14.3589 265.154 14.3589H293.221C293.464 14.3589 293.697 14.4553 293.868 14.627C294.04 14.7987 294.136 15.0315 294.136 15.2743C294.136 15.5171 294.04 15.7499 293.868 15.9216C293.697 16.0933 293.464 16.1897 293.221 16.1897Z" fill="#6C63FF"/>
<path d="M277.32 19.8069H265.154C264.911 19.8069 264.678 19.7105 264.506 19.5388C264.335 19.3671 264.238 19.1343 264.238 18.8915C264.238 18.6487 264.335 18.4159 264.506 18.2442C264.678 18.0725 264.911 17.9761 265.154 17.9761H277.32C277.563 17.9761 277.796 18.0725 277.968 18.2442C278.139 18.4159 278.236 18.6487 278.236 18.8915C278.236 19.1343 278.139 19.3671 277.968 19.5388C277.796 19.7105 277.563 19.8069 277.32 19.8069Z" fill="#6C63FF"/>
<path d="M293.222 27.3825H265.154C265.034 27.3828 264.914 27.3594 264.803 27.3135C264.692 27.2677 264.591 27.2003 264.505 27.1153C264.42 27.0302 264.352 26.9292 264.306 26.818C264.26 26.7068 264.236 26.5875 264.236 26.4671C264.236 26.3467 264.26 26.2275 264.306 26.1163C264.352 26.005 264.42 25.904 264.505 25.819C264.591 25.734 264.692 25.6666 264.803 25.6207C264.914 25.5749 265.034 25.5514 265.154 25.5518H293.222C293.342 25.5514 293.461 25.5749 293.573 25.6207C293.684 25.6666 293.785 25.734 293.87 25.819C293.956 25.904 294.023 26.005 294.069 26.1163C294.116 26.2275 294.139 26.3467 294.139 26.4671C294.139 26.5875 294.116 26.7068 294.069 26.818C294.023 26.9292 293.956 27.0302 293.87 27.1153C293.785 27.2003 293.684 27.2677 293.573 27.3135C293.461 27.3594 293.342 27.3828 293.222 27.3825Z" fill="#E4E4E4"/>
<path d="M293.222 30.9998H265.154C265.034 31.0001 264.914 30.9766 264.803 30.9308C264.692 30.8849 264.591 30.8176 264.505 30.7325C264.42 30.6475 264.352 30.5465 264.306 30.4352C264.26 30.324 264.236 30.2048 264.236 30.0844C264.236 29.9639 264.26 29.8447 264.306 29.7335C264.352 29.6223 264.42 29.5212 264.505 29.4362C264.591 29.3512 264.692 29.2838 264.803 29.2379C264.914 29.1921 265.034 29.1686 265.154 29.1689H293.222C293.342 29.1686 293.461 29.1921 293.573 29.2379C293.684 29.2838 293.785 29.3512 293.87 29.4362C293.956 29.5212 294.023 29.6223 294.07 29.7335C294.116 29.8447 294.139 29.9639 294.139 30.0844C294.139 30.2048 294.116 30.324 294.07 30.4352C294.023 30.5465 293.956 30.6475 293.87 30.7325C293.785 30.8176 293.684 30.8849 293.573 30.9308C293.461 30.9766 293.342 31.0001 293.222 30.9998Z" fill="#E4E4E4"/>
<path d="M277.32 34.6165H265.154C264.911 34.6165 264.678 34.52 264.506 34.3484C264.335 34.1767 264.238 33.9438 264.238 33.7011C264.238 33.4583 264.335 33.2254 264.506 33.0538C264.678 32.8821 264.911 32.7856 265.154 32.7856H277.32C277.563 32.7856 277.796 32.8821 277.968 33.0538C278.139 33.2254 278.236 33.4583 278.236 33.7011C278.236 33.9438 278.139 34.1767 277.968 34.3484C277.796 34.52 277.563 34.6165 277.32 34.6165Z" fill="#E4E4E4"/>
</g>
<defs>
<clipPath id="clip0_199_4574">
<rect width="577.364" height="430.228" fill="white"/>
</clipPath>
</defs>
</svg>
